<?xml version="1.0" encoding="UTF-8"?>
<!-- Generator: Adobe Illustrator 23.0.2, SVG Export Plug-In . SVG Version: 6.00 Build 0)  -->
<svg version="1.1" id="Capa_1" xmlns="http://www.w3.org/2000/svg" xmlns:xlink="http://www.w3.org/1999/xlink" x="0px" y="0px" viewBox="0 0 500 119.5" style="enable-background:new 0 0 500 119.5;" xml:space="preserve">
<style type="text/css">
	.st0{fill:#646569;}
	.st1{fill:#72D54A;}
</style>
<g>
	<g>
		<g>
			<path class="st0" d="M135.5,72.3h-14.5v15.1h-9.7V36.1c8.1,0,16.1-0.1,24.1-0.1C160.5,36.1,160.6,72.3,135.5,72.3z M121,63.4     h14.5c12.4,0,12.3-18.2,0-18.2H121V63.4z"/>
			<path class="st0" d="M169,36.2v51.2h-8.8V36.2H169z"/>
			<path class="st0" d="M205.5,51.3h8.6v36.1h-8.4l-0.5-5.2c-2.1,4.3-7.7,6.3-11.7,6.4c-10.7,0.1-18.6-6.5-18.6-19.2     c0-12.5,8.3-18.9,18.8-18.9c4.9,0,9.4,2.3,11.5,5.9L205.5,51.3z M183.8,69.2c0,6.8,4.8,11,10.7,11c14.1,0,14.1-21.9,0-21.9     C188.6,58.4,183.8,62.4,183.8,69.2z"/>
			<path class="st0" d="M253.3,82.7c-4.2,4.1-8.6,5.7-13.9,5.7c-10.5,0-19.2-6.3-19.2-19.1s8.7-19.1,19.2-19.1c5.1,0,9.1,1.4,13,5.3     l-5.6,5.9c-2.1-1.9-4.8-2.9-7.2-2.9c-6,0-10.4,4.4-10.4,10.7c0,6.8,4.7,10.6,10.3,10.6c2.9,0,5.7-0.8,7.9-3L253.3,82.7z"/>
			<path class="st0" d="M266.4,72.5c0.6,4.5,4.5,7.7,10.7,7.7c3.3,0,7.6-1.2,9.7-3.3l5.7,5.6c-3.8,4-10,5.9-15.5,5.9     c-12.5,0-19.9-7.7-19.9-19.2c0-11,7.5-18.9,19.2-18.9c12.1,0,19.6,7.5,18.3,22.3L266.4,72.5L266.4,72.5L266.4,72.5z M286,65.1     c-0.6-4.7-4.3-7-9.4-7c-4.9,0-8.7,2.4-10.1,7H286z"/>
			<g>
				<g>
					<path class="st1" d="M312.5,41.1v10.3h10V59h-10v15.6c0,3.4,1.9,5.1,4.7,5.1c1.4,0,3-0.5,4.3-1.1l2.5,7.6       c-2.6,1-4.7,1.4-7.4,1.5c-7.8,0.3-12.9-4.2-12.9-13.2V59h-6.8v-7.7h6.8v-9.3L312.5,41.1z"/>
				</g>
			</g>
			<g>
				<g>
					<path class="st1" d="M365,69.3c0,10.4-7.1,18.8-18.8,18.8s-18.7-8.4-18.7-18.8s7.2-18.8,18.6-18.8C357.5,50.5,365,59,365,69.3z        M336.3,69.3c0,5.5,3.3,10.7,9.8,10.7c6.5,0,9.8-5.1,9.8-10.7c0-5.4-3.8-10.7-9.8-10.7C339.7,58.7,336.3,63.9,336.3,69.3z"/>
				</g>
			</g>
			<path class="st0" d="M396,72.3h-14.5v15.1h-9.7V36.1c8.1,0,16.1-0.1,24.1-0.1C421,36.1,421.1,72.3,396,72.3z M381.4,63.4h14.5     c12.4,0,12.3-18.2,0-18.2h-14.5V63.4z"/>
			<path class="st0" d="M447.7,51.3h8.6v36.1h-8.4l-0.5-5.2c-2.1,4.3-7.7,6.3-11.7,6.4c-10.7,0.1-18.6-6.5-18.6-19.2     c0-12.5,8.3-18.9,18.8-18.9c4.8,0,9.4,2.3,11.5,5.9L447.7,51.3z M426,69.2c0,6.8,4.8,11,10.7,11c14.1,0,14.1-21.9,0-21.9     C430.8,58.4,426,62.4,426,69.2z"/>
			<path class="st0" d="M498.6,51.3l-22.1,51.2h-9.8l6.8-15.7L459,51.3h10.4l5.5,15.6l3.5,10.1l3.7-10l6.6-15.8L498.6,51.3     L498.6,51.3z"/>
		</g>
	</g>
	<g>
		<path class="st1" d="M5.5,119.2c-0.9,0-1.8-0.2-2.6-0.7c-1.6-0.9-2.6-2.7-2.6-4.6V86.8c0-1.9,1-3.6,2.6-4.6l39.3-22.7L10.7,41.5    v23c0,2.9-2.4,5.2-5.2,5.2s-5.2-2.4-5.2-5.2v-32c0-1.9,1-3.6,2.6-4.6c1.6-0.9,3.6-0.9,5.2,0L55.1,55c1.6,0.9,2.6,2.7,2.6,4.6    s-1,3.6-2.6,4.6L10.7,89.8v15.1l67.1-38.7c2.4-1.4,3.8-3.8,3.8-6.5c0-2.7-1.4-5.2-3.8-6.5L2.9,9.7C0.4,8.3-0.5,5.1,1,2.6    c1.4-2.4,4.6-3.3,7.1-1.9L83,44c5.6,3.3,9.1,9.1,9.1,15.6S88.7,72,83,75.2L8.1,118.5C7.3,119,6.4,119.2,5.5,119.2z"/>
	</g>
</g>
</svg>